<mxfile host="Electron" modified="2024-07-28T08:07:34.806Z" agent="Mozilla/5.0 (Windows NT 10.0; Win64; x64) AppleWebKit/537.36 (KHTML, like Gecko) draw.io/24.6.4 Chrome/124.0.6367.207 Electron/30.0.6 Safari/537.36" etag="6XU9jzaEZb_zBEeRsoqt" version="24.6.4" type="device">
  <diagram name="Seite-1" id="_MH6-QrCBOgJL1kuzfep">
    <mxGraphModel dx="1290" dy="717" grid="1" gridSize="10" guides="1" tooltips="1" connect="1" arrows="1" fold="1" page="1" pageScale="1" pageWidth="1169" pageHeight="827" math="0" shadow="0">
      <root>
        <mxCell id="0" />
        <mxCell id="1" parent="0" />
        <mxCell id="TmpWhg5RtlY6bORmAOob-1" value="&lt;div&gt;Authorized&lt;/div&gt;&lt;div&gt;Worker&lt;/div&gt;" style="rounded=0;whiteSpace=wrap;html=1;" parent="1" vertex="1">
          <mxGeometry x="40" y="40" width="120" height="60" as="geometry" />
        </mxCell>
        <mxCell id="TmpWhg5RtlY6bORmAOob-2" value="" style="shape=umlActor;verticalLabelPosition=bottom;verticalAlign=top;html=1;outlineConnect=0;" parent="1" vertex="1">
          <mxGeometry x="140" y="47.5" width="20" height="45" as="geometry" />
        </mxCell>
        <mxCell id="TmpWhg5RtlY6bORmAOob-3" value="RentFilmController" style="rounded=0;whiteSpace=wrap;html=1;" parent="1" vertex="1">
          <mxGeometry x="220" y="40" width="120" height="60" as="geometry" />
        </mxCell>
        <mxCell id="TmpWhg5RtlY6bORmAOob-6" value="Spring" style="rounded=0;whiteSpace=wrap;html=1;" parent="1" vertex="1">
          <mxGeometry x="480" y="40" width="120" height="60" as="geometry" />
        </mxCell>
        <mxCell id="TmpWhg5RtlY6bORmAOob-7" value="" style="endArrow=none;dashed=1;html=1;dashPattern=1 3;strokeWidth=2;rounded=0;" parent="1" edge="1">
          <mxGeometry width="50" height="50" relative="1" as="geometry">
            <mxPoint x="100" y="1480" as="sourcePoint" />
            <mxPoint x="100" y="100" as="targetPoint" />
          </mxGeometry>
        </mxCell>
        <mxCell id="TmpWhg5RtlY6bORmAOob-8" value="" style="endArrow=none;dashed=1;html=1;dashPattern=1 3;strokeWidth=2;rounded=0;" parent="1" source="TmpWhg5RtlY6bORmAOob-30" edge="1">
          <mxGeometry width="50" height="50" relative="1" as="geometry">
            <mxPoint x="280" y="800" as="sourcePoint" />
            <mxPoint x="280" y="100" as="targetPoint" />
          </mxGeometry>
        </mxCell>
        <mxCell id="TmpWhg5RtlY6bORmAOob-11" value="" style="endArrow=none;dashed=1;html=1;dashPattern=1 3;strokeWidth=2;rounded=0;entryX=0.5;entryY=1;entryDx=0;entryDy=0;" parent="1" source="TmpWhg5RtlY6bORmAOob-36" target="TmpWhg5RtlY6bORmAOob-6" edge="1">
          <mxGeometry width="50" height="50" relative="1" as="geometry">
            <mxPoint x="539.5" y="800" as="sourcePoint" />
            <mxPoint x="539.5" y="100" as="targetPoint" />
          </mxGeometry>
        </mxCell>
        <mxCell id="TmpWhg5RtlY6bORmAOob-12" value="" style="endArrow=classic;html=1;rounded=0;" parent="1" target="TmpWhg5RtlY6bORmAOob-30" edge="1">
          <mxGeometry width="50" height="50" relative="1" as="geometry">
            <mxPoint x="100" y="130" as="sourcePoint" />
            <mxPoint x="280" y="130" as="targetPoint" />
          </mxGeometry>
        </mxCell>
        <mxCell id="TmpWhg5RtlY6bORmAOob-13" value="getRentFilms()" style="edgeLabel;html=1;align=center;verticalAlign=middle;resizable=0;points=[];" parent="TmpWhg5RtlY6bORmAOob-12" vertex="1" connectable="0">
          <mxGeometry x="-0.2222" y="-2" relative="1" as="geometry">
            <mxPoint x="20" y="-2" as="offset" />
          </mxGeometry>
        </mxCell>
        <mxCell id="TmpWhg5RtlY6bORmAOob-14" value="" style="endArrow=classic;html=1;rounded=0;" parent="1" target="TmpWhg5RtlY6bORmAOob-30" edge="1">
          <mxGeometry width="50" height="50" relative="1" as="geometry">
            <mxPoint x="280" y="160" as="sourcePoint" />
            <mxPoint x="280" y="200" as="targetPoint" />
            <Array as="points">
              <mxPoint x="360" y="160" />
              <mxPoint x="360" y="200" />
            </Array>
          </mxGeometry>
        </mxCell>
        <mxCell id="TmpWhg5RtlY6bORmAOob-15" value="filmRepository.findAll()" style="edgeLabel;html=1;align=center;verticalAlign=middle;resizable=0;points=[];" parent="TmpWhg5RtlY6bORmAOob-14" vertex="1" connectable="0">
          <mxGeometry x="0.04" y="-2" relative="1" as="geometry">
            <mxPoint as="offset" />
          </mxGeometry>
        </mxCell>
        <mxCell id="TmpWhg5RtlY6bORmAOob-16" value="" style="endArrow=classic;html=1;rounded=0;" parent="1" target="TmpWhg5RtlY6bORmAOob-34" edge="1">
          <mxGeometry width="50" height="50" relative="1" as="geometry">
            <mxPoint x="285" y="230" as="sourcePoint" />
            <mxPoint x="545" y="230" as="targetPoint" />
          </mxGeometry>
        </mxCell>
        <mxCell id="TmpWhg5RtlY6bORmAOob-17" value="add films to Model" style="edgeLabel;html=1;align=center;verticalAlign=middle;resizable=0;points=[];" parent="TmpWhg5RtlY6bORmAOob-16" vertex="1" connectable="0">
          <mxGeometry x="0.0444" y="1" relative="1" as="geometry">
            <mxPoint as="offset" />
          </mxGeometry>
        </mxCell>
        <mxCell id="TmpWhg5RtlY6bORmAOob-18" value="" style="endArrow=none;dashed=1;html=1;rounded=0;startArrow=open;startFill=0;" parent="1" source="TmpWhg5RtlY6bORmAOob-34" edge="1">
          <mxGeometry width="50" height="50" relative="1" as="geometry">
            <mxPoint x="280" y="250" as="sourcePoint" />
            <mxPoint x="540" y="250" as="targetPoint" />
          </mxGeometry>
        </mxCell>
        <mxCell id="TmpWhg5RtlY6bORmAOob-19" value="" style="endArrow=none;dashed=1;html=1;rounded=0;startArrow=open;startFill=0;" parent="1" edge="1">
          <mxGeometry width="50" height="50" relative="1" as="geometry">
            <mxPoint x="100" y="270" as="sourcePoint" />
            <mxPoint x="280" y="270" as="targetPoint" />
          </mxGeometry>
        </mxCell>
        <mxCell id="TmpWhg5RtlY6bORmAOob-20" value="Template: films-rental.html :&amp;nbsp;" style="edgeLabel;html=1;align=center;verticalAlign=middle;resizable=0;points=[];" parent="TmpWhg5RtlY6bORmAOob-19" vertex="1" connectable="0">
          <mxGeometry x="0.0667" y="1" relative="1" as="geometry">
            <mxPoint as="offset" />
          </mxGeometry>
        </mxCell>
        <mxCell id="TmpWhg5RtlY6bORmAOob-21" value="" style="endArrow=classic;html=1;rounded=0;" parent="1" target="TmpWhg5RtlY6bORmAOob-32" edge="1">
          <mxGeometry width="50" height="50" relative="1" as="geometry">
            <mxPoint x="100" y="310" as="sourcePoint" />
            <mxPoint x="280" y="310" as="targetPoint" />
            <Array as="points">
              <mxPoint x="220" y="310" />
            </Array>
          </mxGeometry>
        </mxCell>
        <mxCell id="TmpWhg5RtlY6bORmAOob-22" value="getRentFilm(film)" style="edgeLabel;html=1;align=center;verticalAlign=middle;resizable=0;points=[];" parent="TmpWhg5RtlY6bORmAOob-21" vertex="1" connectable="0">
          <mxGeometry x="0.0556" y="-1" relative="1" as="geometry">
            <mxPoint x="5" y="-1" as="offset" />
          </mxGeometry>
        </mxCell>
        <mxCell id="TmpWhg5RtlY6bORmAOob-24" value="" style="endArrow=none;dashed=1;html=1;rounded=0;startArrow=open;startFill=0;" parent="1" edge="1">
          <mxGeometry width="50" height="50" relative="1" as="geometry">
            <mxPoint x="100" y="780" as="sourcePoint" />
            <mxPoint x="275" y="780" as="targetPoint" />
          </mxGeometry>
        </mxCell>
        <mxCell id="TmpWhg5RtlY6bORmAOob-25" value="Template: films-detail.html :&amp;nbsp;" style="edgeLabel;html=1;align=center;verticalAlign=middle;resizable=0;points=[];" parent="TmpWhg5RtlY6bORmAOob-24" vertex="1" connectable="0">
          <mxGeometry x="-0.3222" y="-1" relative="1" as="geometry">
            <mxPoint x="29" as="offset" />
          </mxGeometry>
        </mxCell>
        <mxCell id="TmpWhg5RtlY6bORmAOob-31" value="" style="endArrow=none;dashed=1;html=1;dashPattern=1 3;strokeWidth=2;rounded=0;" parent="1" source="TmpWhg5RtlY6bORmAOob-32" target="TmpWhg5RtlY6bORmAOob-30" edge="1">
          <mxGeometry width="50" height="50" relative="1" as="geometry">
            <mxPoint x="280" y="800" as="sourcePoint" />
            <mxPoint x="280" y="100" as="targetPoint" />
          </mxGeometry>
        </mxCell>
        <mxCell id="TmpWhg5RtlY6bORmAOob-30" value="" style="html=1;points=[[0,0,0,0,5],[0,1,0,0,-5],[1,0,0,0,5],[1,1,0,0,-5]];perimeter=orthogonalPerimeter;outlineConnect=0;targetShapes=umlLifeline;portConstraint=eastwest;newEdgeStyle={&quot;curved&quot;:0,&quot;rounded&quot;:0};" parent="1" vertex="1">
          <mxGeometry x="275" y="120" width="10" height="160" as="geometry" />
        </mxCell>
        <mxCell id="TmpWhg5RtlY6bORmAOob-33" value="" style="endArrow=none;dashed=1;html=1;dashPattern=1 3;strokeWidth=2;rounded=0;" parent="1" target="TmpWhg5RtlY6bORmAOob-32" edge="1">
          <mxGeometry width="50" height="50" relative="1" as="geometry">
            <mxPoint x="280" y="1480" as="sourcePoint" />
            <mxPoint x="280" y="280" as="targetPoint" />
          </mxGeometry>
        </mxCell>
        <mxCell id="TmpWhg5RtlY6bORmAOob-32" value="" style="html=1;points=[[0,0,0,0,5],[0,1,0,0,-5],[1,0,0,0,5],[1,1,0,0,-5]];perimeter=orthogonalPerimeter;outlineConnect=0;targetShapes=umlLifeline;portConstraint=eastwest;newEdgeStyle={&quot;curved&quot;:0,&quot;rounded&quot;:0};" parent="1" vertex="1">
          <mxGeometry x="275" y="300" width="10" height="1160" as="geometry" />
        </mxCell>
        <mxCell id="TmpWhg5RtlY6bORmAOob-35" value="" style="endArrow=none;dashed=1;html=1;rounded=0;startArrow=open;startFill=0;" parent="1" edge="1">
          <mxGeometry width="50" height="50" relative="1" as="geometry">
            <mxPoint x="285" y="250" as="sourcePoint" />
            <mxPoint x="535" y="250" as="targetPoint" />
          </mxGeometry>
        </mxCell>
        <mxCell id="TmpWhg5RtlY6bORmAOob-34" value="" style="html=1;points=[[0,0,0,0,5],[0,1,0,0,-5],[1,0,0,0,5],[1,1,0,0,-5]];perimeter=orthogonalPerimeter;outlineConnect=0;targetShapes=umlLifeline;portConstraint=eastwest;newEdgeStyle={&quot;curved&quot;:0,&quot;rounded&quot;:0};" parent="1" vertex="1">
          <mxGeometry x="535" y="220" width="10" height="30" as="geometry" />
        </mxCell>
        <mxCell id="TmpWhg5RtlY6bORmAOob-37" value="" style="endArrow=none;dashed=1;html=1;dashPattern=1 3;strokeWidth=2;rounded=0;entryX=0.5;entryY=1;entryDx=0;entryDy=0;" parent="1" source="2nmOzk4MmiROLbCKrJJv-40" target="TmpWhg5RtlY6bORmAOob-36" edge="1">
          <mxGeometry width="50" height="50" relative="1" as="geometry">
            <mxPoint x="540" y="820" as="sourcePoint" />
            <mxPoint x="540" y="100" as="targetPoint" />
          </mxGeometry>
        </mxCell>
        <mxCell id="TmpWhg5RtlY6bORmAOob-36" value="" style="html=1;points=[[0,0,0,0,5],[0,1,0,0,-5],[1,0,0,0,5],[1,1,0,0,-5]];perimeter=orthogonalPerimeter;outlineConnect=0;targetShapes=umlLifeline;portConstraint=eastwest;newEdgeStyle={&quot;curved&quot;:0,&quot;rounded&quot;:0};" parent="1" vertex="1">
          <mxGeometry x="535" y="320" width="10" height="30" as="geometry" />
        </mxCell>
        <mxCell id="2nmOzk4MmiROLbCKrJJv-1" value="" style="endArrow=classic;html=1;rounded=0;" parent="1" edge="1">
          <mxGeometry width="50" height="50" relative="1" as="geometry">
            <mxPoint x="285" y="320" as="sourcePoint" />
            <mxPoint x="290" y="360" as="targetPoint" />
            <Array as="points">
              <mxPoint x="365" y="320" />
              <mxPoint x="365" y="360" />
            </Array>
          </mxGeometry>
        </mxCell>
        <mxCell id="2nmOzk4MmiROLbCKrJJv-2" value="addDetailNowAndPastWeeks()" style="edgeLabel;html=1;align=center;verticalAlign=middle;resizable=0;points=[];" parent="2nmOzk4MmiROLbCKrJJv-1" vertex="1" connectable="0">
          <mxGeometry x="0.04" y="-2" relative="1" as="geometry">
            <mxPoint x="17" y="-1" as="offset" />
          </mxGeometry>
        </mxCell>
        <mxCell id="2nmOzk4MmiROLbCKrJJv-3" value="" style="endArrow=classic;html=1;rounded=0;" parent="1" edge="1">
          <mxGeometry width="50" height="50" relative="1" as="geometry">
            <mxPoint x="285" y="374" as="sourcePoint" />
            <mxPoint x="290" y="414" as="targetPoint" />
            <Array as="points">
              <mxPoint x="365" y="374" />
              <mxPoint x="365" y="414" />
            </Array>
          </mxGeometry>
        </mxCell>
        <mxCell id="2nmOzk4MmiROLbCKrJJv-4" value="addDetailFutureWeeks()" style="edgeLabel;html=1;align=center;verticalAlign=middle;resizable=0;points=[];" parent="2nmOzk4MmiROLbCKrJJv-3" vertex="1" connectable="0">
          <mxGeometry x="0.04" y="-2" relative="1" as="geometry">
            <mxPoint x="17" y="-1" as="offset" />
          </mxGeometry>
        </mxCell>
        <mxCell id="2nmOzk4MmiROLbCKrJJv-5" value="" style="endArrow=classic;html=1;rounded=0;" parent="1" edge="1">
          <mxGeometry width="50" height="50" relative="1" as="geometry">
            <mxPoint x="285" y="480" as="sourcePoint" />
            <mxPoint x="540" y="480" as="targetPoint" />
          </mxGeometry>
        </mxCell>
        <mxCell id="2nmOzk4MmiROLbCKrJJv-6" value="add film to Modell" style="edgeLabel;html=1;align=center;verticalAlign=middle;resizable=0;points=[];" parent="2nmOzk4MmiROLbCKrJJv-5" vertex="1" connectable="0">
          <mxGeometry x="-0.0385" relative="1" as="geometry">
            <mxPoint as="offset" />
          </mxGeometry>
        </mxCell>
        <mxCell id="2nmOzk4MmiROLbCKrJJv-7" value="" style="endArrow=none;dashed=1;html=1;rounded=0;startArrow=open;startFill=0;" parent="1" edge="1">
          <mxGeometry width="50" height="50" relative="1" as="geometry">
            <mxPoint x="285" y="490" as="sourcePoint" />
            <mxPoint x="540" y="490" as="targetPoint" />
          </mxGeometry>
        </mxCell>
        <mxCell id="2nmOzk4MmiROLbCKrJJv-8" value="" style="endArrow=classic;html=1;rounded=0;" parent="1" edge="1">
          <mxGeometry width="50" height="50" relative="1" as="geometry">
            <mxPoint x="285" y="510" as="sourcePoint" />
            <mxPoint x="540" y="510" as="targetPoint" />
          </mxGeometry>
        </mxCell>
        <mxCell id="2nmOzk4MmiROLbCKrJJv-9" value="add allRangeYearWeeks to Modell" style="edgeLabel;html=1;align=center;verticalAlign=middle;resizable=0;points=[];" parent="2nmOzk4MmiROLbCKrJJv-8" vertex="1" connectable="0">
          <mxGeometry x="-0.0385" relative="1" as="geometry">
            <mxPoint as="offset" />
          </mxGeometry>
        </mxCell>
        <mxCell id="2nmOzk4MmiROLbCKrJJv-10" value="" style="endArrow=none;dashed=1;html=1;rounded=0;startArrow=open;startFill=0;" parent="1" edge="1">
          <mxGeometry width="50" height="50" relative="1" as="geometry">
            <mxPoint x="285" y="520" as="sourcePoint" />
            <mxPoint x="540" y="520" as="targetPoint" />
          </mxGeometry>
        </mxCell>
        <mxCell id="2nmOzk4MmiROLbCKrJJv-11" value="" style="endArrow=classic;html=1;rounded=0;" parent="1" edge="1">
          <mxGeometry width="50" height="50" relative="1" as="geometry">
            <mxPoint x="285" y="425" as="sourcePoint" />
            <mxPoint x="290" y="465" as="targetPoint" />
            <Array as="points">
              <mxPoint x="365" y="425" />
              <mxPoint x="365" y="465" />
            </Array>
          </mxGeometry>
        </mxCell>
        <mxCell id="2nmOzk4MmiROLbCKrJJv-12" value="getTotalSeatOccupancyValues(film) :&amp;nbsp;&lt;div&gt;values&lt;/div&gt;" style="edgeLabel;html=1;align=center;verticalAlign=middle;resizable=0;points=[];" parent="2nmOzk4MmiROLbCKrJJv-11" vertex="1" connectable="0">
          <mxGeometry x="0.04" y="-2" relative="1" as="geometry">
            <mxPoint x="17" y="-1" as="offset" />
          </mxGeometry>
        </mxCell>
        <mxCell id="2nmOzk4MmiROLbCKrJJv-13" value="" style="endArrow=classic;html=1;rounded=0;" parent="1" edge="1">
          <mxGeometry width="50" height="50" relative="1" as="geometry">
            <mxPoint x="285" y="540" as="sourcePoint" />
            <mxPoint x="540" y="540" as="targetPoint" />
          </mxGeometry>
        </mxCell>
        <mxCell id="2nmOzk4MmiROLbCKrJJv-14" value="add reservedWeeks to Modell" style="edgeLabel;html=1;align=center;verticalAlign=middle;resizable=0;points=[];" parent="2nmOzk4MmiROLbCKrJJv-13" vertex="1" connectable="0">
          <mxGeometry x="-0.0385" relative="1" as="geometry">
            <mxPoint as="offset" />
          </mxGeometry>
        </mxCell>
        <mxCell id="2nmOzk4MmiROLbCKrJJv-15" value="" style="endArrow=none;dashed=1;html=1;rounded=0;startArrow=open;startFill=0;" parent="1" edge="1">
          <mxGeometry width="50" height="50" relative="1" as="geometry">
            <mxPoint x="285" y="550" as="sourcePoint" />
            <mxPoint x="540" y="550" as="targetPoint" />
          </mxGeometry>
        </mxCell>
        <mxCell id="2nmOzk4MmiROLbCKrJJv-16" value="" style="endArrow=classic;html=1;rounded=0;" parent="1" edge="1">
          <mxGeometry width="50" height="50" relative="1" as="geometry">
            <mxPoint x="285" y="570" as="sourcePoint" />
            <mxPoint x="540" y="570" as="targetPoint" />
          </mxGeometry>
        </mxCell>
        <mxCell id="2nmOzk4MmiROLbCKrJJv-17" value="add nowAndPast to Modell" style="edgeLabel;html=1;align=center;verticalAlign=middle;resizable=0;points=[];" parent="2nmOzk4MmiROLbCKrJJv-16" vertex="1" connectable="0">
          <mxGeometry x="-0.0385" relative="1" as="geometry">
            <mxPoint as="offset" />
          </mxGeometry>
        </mxCell>
        <mxCell id="2nmOzk4MmiROLbCKrJJv-18" value="" style="endArrow=none;dashed=1;html=1;rounded=0;startArrow=open;startFill=0;" parent="1" edge="1">
          <mxGeometry width="50" height="50" relative="1" as="geometry">
            <mxPoint x="285" y="580" as="sourcePoint" />
            <mxPoint x="540" y="580" as="targetPoint" />
          </mxGeometry>
        </mxCell>
        <mxCell id="2nmOzk4MmiROLbCKrJJv-19" value="" style="endArrow=classic;html=1;rounded=0;" parent="1" edge="1">
          <mxGeometry width="50" height="50" relative="1" as="geometry">
            <mxPoint x="285" y="600" as="sourcePoint" />
            <mxPoint x="540" y="600" as="targetPoint" />
          </mxGeometry>
        </mxCell>
        <mxCell id="2nmOzk4MmiROLbCKrJJv-20" value="add blockedReservedWeeks to Modell" style="edgeLabel;html=1;align=center;verticalAlign=middle;resizable=0;points=[];" parent="2nmOzk4MmiROLbCKrJJv-19" vertex="1" connectable="0">
          <mxGeometry x="-0.0385" relative="1" as="geometry">
            <mxPoint as="offset" />
          </mxGeometry>
        </mxCell>
        <mxCell id="2nmOzk4MmiROLbCKrJJv-21" value="" style="endArrow=none;dashed=1;html=1;rounded=0;startArrow=open;startFill=0;" parent="1" edge="1">
          <mxGeometry width="50" height="50" relative="1" as="geometry">
            <mxPoint x="285" y="610" as="sourcePoint" />
            <mxPoint x="540" y="610" as="targetPoint" />
          </mxGeometry>
        </mxCell>
        <mxCell id="2nmOzk4MmiROLbCKrJJv-22" value="" style="endArrow=classic;html=1;rounded=0;" parent="1" edge="1">
          <mxGeometry width="50" height="50" relative="1" as="geometry">
            <mxPoint x="285" y="630" as="sourcePoint" />
            <mxPoint x="540" y="630" as="targetPoint" />
          </mxGeometry>
        </mxCell>
        <mxCell id="2nmOzk4MmiROLbCKrJJv-23" value="add freeSeatCount to Modell" style="edgeLabel;html=1;align=center;verticalAlign=middle;resizable=0;points=[];" parent="2nmOzk4MmiROLbCKrJJv-22" vertex="1" connectable="0">
          <mxGeometry x="-0.0385" relative="1" as="geometry">
            <mxPoint as="offset" />
          </mxGeometry>
        </mxCell>
        <mxCell id="2nmOzk4MmiROLbCKrJJv-24" value="" style="endArrow=none;dashed=1;html=1;rounded=0;startArrow=open;startFill=0;" parent="1" edge="1">
          <mxGeometry width="50" height="50" relative="1" as="geometry">
            <mxPoint x="285" y="640" as="sourcePoint" />
            <mxPoint x="540" y="640" as="targetPoint" />
          </mxGeometry>
        </mxCell>
        <mxCell id="2nmOzk4MmiROLbCKrJJv-25" value="" style="endArrow=classic;html=1;rounded=0;" parent="1" edge="1">
          <mxGeometry width="50" height="50" relative="1" as="geometry">
            <mxPoint x="285" y="660" as="sourcePoint" />
            <mxPoint x="540" y="660" as="targetPoint" />
          </mxGeometry>
        </mxCell>
        <mxCell id="2nmOzk4MmiROLbCKrJJv-26" value="add reservedSeatCount to Modell" style="edgeLabel;html=1;align=center;verticalAlign=middle;resizable=0;points=[];" parent="2nmOzk4MmiROLbCKrJJv-25" vertex="1" connectable="0">
          <mxGeometry x="-0.0385" relative="1" as="geometry">
            <mxPoint as="offset" />
          </mxGeometry>
        </mxCell>
        <mxCell id="2nmOzk4MmiROLbCKrJJv-27" value="" style="endArrow=none;dashed=1;html=1;rounded=0;startArrow=open;startFill=0;" parent="1" edge="1">
          <mxGeometry width="50" height="50" relative="1" as="geometry">
            <mxPoint x="285" y="670" as="sourcePoint" />
            <mxPoint x="540" y="670" as="targetPoint" />
          </mxGeometry>
        </mxCell>
        <mxCell id="2nmOzk4MmiROLbCKrJJv-28" value="" style="endArrow=classic;html=1;rounded=0;" parent="1" edge="1">
          <mxGeometry width="50" height="50" relative="1" as="geometry">
            <mxPoint x="285" y="690" as="sourcePoint" />
            <mxPoint x="540" y="690" as="targetPoint" />
          </mxGeometry>
        </mxCell>
        <mxCell id="2nmOzk4MmiROLbCKrJJv-29" value="add boughtSeatCount to Modell" style="edgeLabel;html=1;align=center;verticalAlign=middle;resizable=0;points=[];" parent="2nmOzk4MmiROLbCKrJJv-28" vertex="1" connectable="0">
          <mxGeometry x="-0.0385" relative="1" as="geometry">
            <mxPoint as="offset" />
          </mxGeometry>
        </mxCell>
        <mxCell id="2nmOzk4MmiROLbCKrJJv-30" value="" style="endArrow=none;dashed=1;html=1;rounded=0;startArrow=open;startFill=0;" parent="1" edge="1">
          <mxGeometry width="50" height="50" relative="1" as="geometry">
            <mxPoint x="285" y="700" as="sourcePoint" />
            <mxPoint x="540" y="700" as="targetPoint" />
          </mxGeometry>
        </mxCell>
        <mxCell id="2nmOzk4MmiROLbCKrJJv-31" value="" style="endArrow=classic;html=1;rounded=0;" parent="1" edge="1">
          <mxGeometry width="50" height="50" relative="1" as="geometry">
            <mxPoint x="285" y="720" as="sourcePoint" />
            <mxPoint x="540" y="720" as="targetPoint" />
          </mxGeometry>
        </mxCell>
        <mxCell id="2nmOzk4MmiROLbCKrJJv-32" value="add sumRentFee to Modell" style="edgeLabel;html=1;align=center;verticalAlign=middle;resizable=0;points=[];" parent="2nmOzk4MmiROLbCKrJJv-31" vertex="1" connectable="0">
          <mxGeometry x="-0.0385" relative="1" as="geometry">
            <mxPoint as="offset" />
          </mxGeometry>
        </mxCell>
        <mxCell id="2nmOzk4MmiROLbCKrJJv-33" value="" style="endArrow=none;dashed=1;html=1;rounded=0;startArrow=open;startFill=0;" parent="1" edge="1">
          <mxGeometry width="50" height="50" relative="1" as="geometry">
            <mxPoint x="285" y="730" as="sourcePoint" />
            <mxPoint x="540" y="730" as="targetPoint" />
          </mxGeometry>
        </mxCell>
        <mxCell id="2nmOzk4MmiROLbCKrJJv-34" value="" style="endArrow=classic;html=1;rounded=0;" parent="1" edge="1">
          <mxGeometry width="50" height="50" relative="1" as="geometry">
            <mxPoint x="285" y="750" as="sourcePoint" />
            <mxPoint x="540" y="750" as="targetPoint" />
          </mxGeometry>
        </mxCell>
        <mxCell id="2nmOzk4MmiROLbCKrJJv-35" value="add title to Modell" style="edgeLabel;html=1;align=center;verticalAlign=middle;resizable=0;points=[];" parent="2nmOzk4MmiROLbCKrJJv-34" vertex="1" connectable="0">
          <mxGeometry x="-0.0385" relative="1" as="geometry">
            <mxPoint as="offset" />
          </mxGeometry>
        </mxCell>
        <mxCell id="2nmOzk4MmiROLbCKrJJv-36" value="" style="endArrow=none;dashed=1;html=1;rounded=0;startArrow=open;startFill=0;" parent="1" edge="1">
          <mxGeometry width="50" height="50" relative="1" as="geometry">
            <mxPoint x="285" y="760" as="sourcePoint" />
            <mxPoint x="540" y="760" as="targetPoint" />
          </mxGeometry>
        </mxCell>
        <mxCell id="2nmOzk4MmiROLbCKrJJv-41" value="" style="endArrow=none;dashed=1;html=1;dashPattern=1 3;strokeWidth=2;rounded=0;entryX=0.5;entryY=1;entryDx=0;entryDy=0;" parent="1" source="2nmOzk4MmiROLbCKrJJv-42" target="2nmOzk4MmiROLbCKrJJv-40" edge="1">
          <mxGeometry width="50" height="50" relative="1" as="geometry">
            <mxPoint x="540" y="820" as="sourcePoint" />
            <mxPoint x="540" y="350" as="targetPoint" />
          </mxGeometry>
        </mxCell>
        <mxCell id="2nmOzk4MmiROLbCKrJJv-40" value="" style="html=1;points=[[0,0,0,0,5],[0,1,0,0,-5],[1,0,0,0,5],[1,1,0,0,-5]];perimeter=orthogonalPerimeter;outlineConnect=0;targetShapes=umlLifeline;portConstraint=eastwest;newEdgeStyle={&quot;curved&quot;:0,&quot;rounded&quot;:0};" parent="1" vertex="1">
          <mxGeometry x="535" y="480" width="10" height="10" as="geometry" />
        </mxCell>
        <mxCell id="2nmOzk4MmiROLbCKrJJv-43" value="" style="endArrow=none;dashed=1;html=1;dashPattern=1 3;strokeWidth=2;rounded=0;entryX=0.5;entryY=1;entryDx=0;entryDy=0;" parent="1" source="2nmOzk4MmiROLbCKrJJv-45" target="2nmOzk4MmiROLbCKrJJv-42" edge="1">
          <mxGeometry width="50" height="50" relative="1" as="geometry">
            <mxPoint x="540" y="820" as="sourcePoint" />
            <mxPoint x="540" y="490" as="targetPoint" />
          </mxGeometry>
        </mxCell>
        <mxCell id="2nmOzk4MmiROLbCKrJJv-42" value="" style="html=1;points=[[0,0,0,0,5],[0,1,0,0,-5],[1,0,0,0,5],[1,1,0,0,-5]];perimeter=orthogonalPerimeter;outlineConnect=0;targetShapes=umlLifeline;portConstraint=eastwest;newEdgeStyle={&quot;curved&quot;:0,&quot;rounded&quot;:0};" parent="1" vertex="1">
          <mxGeometry x="535" y="510" width="10" height="10" as="geometry" />
        </mxCell>
        <mxCell id="2nmOzk4MmiROLbCKrJJv-44" value="" style="html=1;points=[[0,0,0,0,5],[0,1,0,0,-5],[1,0,0,0,5],[1,1,0,0,-5]];perimeter=orthogonalPerimeter;outlineConnect=0;targetShapes=umlLifeline;portConstraint=eastwest;newEdgeStyle={&quot;curved&quot;:0,&quot;rounded&quot;:0};" parent="1" vertex="1">
          <mxGeometry x="535" y="540" width="10" height="10" as="geometry" />
        </mxCell>
        <mxCell id="2nmOzk4MmiROLbCKrJJv-46" value="" style="endArrow=none;dashed=1;html=1;dashPattern=1 3;strokeWidth=2;rounded=0;entryX=0.5;entryY=1;entryDx=0;entryDy=0;" parent="1" source="2nmOzk4MmiROLbCKrJJv-47" target="2nmOzk4MmiROLbCKrJJv-45" edge="1">
          <mxGeometry width="50" height="50" relative="1" as="geometry">
            <mxPoint x="540" y="820" as="sourcePoint" />
            <mxPoint x="540" y="520" as="targetPoint" />
          </mxGeometry>
        </mxCell>
        <mxCell id="2nmOzk4MmiROLbCKrJJv-45" value="" style="html=1;points=[[0,0,0,0,5],[0,1,0,0,-5],[1,0,0,0,5],[1,1,0,0,-5]];perimeter=orthogonalPerimeter;outlineConnect=0;targetShapes=umlLifeline;portConstraint=eastwest;newEdgeStyle={&quot;curved&quot;:0,&quot;rounded&quot;:0};" parent="1" vertex="1">
          <mxGeometry x="535" y="570" width="10" height="10" as="geometry" />
        </mxCell>
        <mxCell id="2nmOzk4MmiROLbCKrJJv-48" value="" style="endArrow=none;dashed=1;html=1;dashPattern=1 3;strokeWidth=2;rounded=0;entryX=0.5;entryY=1;entryDx=0;entryDy=0;" parent="1" source="2nmOzk4MmiROLbCKrJJv-50" target="2nmOzk4MmiROLbCKrJJv-47" edge="1">
          <mxGeometry width="50" height="50" relative="1" as="geometry">
            <mxPoint x="540" y="820" as="sourcePoint" />
            <mxPoint x="540" y="580" as="targetPoint" />
          </mxGeometry>
        </mxCell>
        <mxCell id="2nmOzk4MmiROLbCKrJJv-47" value="" style="html=1;points=[[0,0,0,0,5],[0,1,0,0,-5],[1,0,0,0,5],[1,1,0,0,-5]];perimeter=orthogonalPerimeter;outlineConnect=0;targetShapes=umlLifeline;portConstraint=eastwest;newEdgeStyle={&quot;curved&quot;:0,&quot;rounded&quot;:0};" parent="1" vertex="1">
          <mxGeometry x="535" y="600" width="10" height="10" as="geometry" />
        </mxCell>
        <mxCell id="2nmOzk4MmiROLbCKrJJv-51" value="" style="endArrow=none;dashed=1;html=1;dashPattern=1 3;strokeWidth=2;rounded=0;entryX=0.5;entryY=1;entryDx=0;entryDy=0;" parent="1" source="2nmOzk4MmiROLbCKrJJv-55" target="2nmOzk4MmiROLbCKrJJv-50" edge="1">
          <mxGeometry width="50" height="50" relative="1" as="geometry">
            <mxPoint x="540" y="820" as="sourcePoint" />
            <mxPoint x="540" y="610" as="targetPoint" />
          </mxGeometry>
        </mxCell>
        <mxCell id="2nmOzk4MmiROLbCKrJJv-50" value="" style="html=1;points=[[0,0,0,0,5],[0,1,0,0,-5],[1,0,0,0,5],[1,1,0,0,-5]];perimeter=orthogonalPerimeter;outlineConnect=0;targetShapes=umlLifeline;portConstraint=eastwest;newEdgeStyle={&quot;curved&quot;:0,&quot;rounded&quot;:0};" parent="1" vertex="1">
          <mxGeometry x="535" y="630" width="10" height="10" as="geometry" />
        </mxCell>
        <mxCell id="2nmOzk4MmiROLbCKrJJv-52" value="" style="html=1;points=[[0,0,0,0,5],[0,1,0,0,-5],[1,0,0,0,5],[1,1,0,0,-5]];perimeter=orthogonalPerimeter;outlineConnect=0;targetShapes=umlLifeline;portConstraint=eastwest;newEdgeStyle={&quot;curved&quot;:0,&quot;rounded&quot;:0};" parent="1" vertex="1">
          <mxGeometry x="535" y="660" width="10" height="10" as="geometry" />
        </mxCell>
        <mxCell id="2nmOzk4MmiROLbCKrJJv-53" value="" style="html=1;points=[[0,0,0,0,5],[0,1,0,0,-5],[1,0,0,0,5],[1,1,0,0,-5]];perimeter=orthogonalPerimeter;outlineConnect=0;targetShapes=umlLifeline;portConstraint=eastwest;newEdgeStyle={&quot;curved&quot;:0,&quot;rounded&quot;:0};" parent="1" vertex="1">
          <mxGeometry x="535" y="690" width="10" height="10" as="geometry" />
        </mxCell>
        <mxCell id="2nmOzk4MmiROLbCKrJJv-54" value="" style="html=1;points=[[0,0,0,0,5],[0,1,0,0,-5],[1,0,0,0,5],[1,1,0,0,-5]];perimeter=orthogonalPerimeter;outlineConnect=0;targetShapes=umlLifeline;portConstraint=eastwest;newEdgeStyle={&quot;curved&quot;:0,&quot;rounded&quot;:0};" parent="1" vertex="1">
          <mxGeometry x="535" y="720" width="10" height="10" as="geometry" />
        </mxCell>
        <mxCell id="2nmOzk4MmiROLbCKrJJv-56" value="" style="endArrow=none;dashed=1;html=1;dashPattern=1 3;strokeWidth=2;rounded=0;entryX=0.5;entryY=1;entryDx=0;entryDy=0;" parent="1" target="2nmOzk4MmiROLbCKrJJv-55" edge="1">
          <mxGeometry width="50" height="50" relative="1" as="geometry">
            <mxPoint x="540" y="1480" as="sourcePoint" />
            <mxPoint x="540" y="640" as="targetPoint" />
          </mxGeometry>
        </mxCell>
        <mxCell id="2nmOzk4MmiROLbCKrJJv-55" value="" style="html=1;points=[[0,0,0,0,5],[0,1,0,0,-5],[1,0,0,0,5],[1,1,0,0,-5]];perimeter=orthogonalPerimeter;outlineConnect=0;targetShapes=umlLifeline;portConstraint=eastwest;newEdgeStyle={&quot;curved&quot;:0,&quot;rounded&quot;:0};" parent="1" vertex="1">
          <mxGeometry x="535" y="750" width="10" height="10" as="geometry" />
        </mxCell>
        <mxCell id="2nmOzk4MmiROLbCKrJJv-57" value="" style="endArrow=classic;html=1;rounded=0;" parent="1" edge="1">
          <mxGeometry width="50" height="50" relative="1" as="geometry">
            <mxPoint x="100" y="810" as="sourcePoint" />
            <mxPoint x="275" y="810" as="targetPoint" />
            <Array as="points">
              <mxPoint x="220" y="810" />
              <mxPoint x="230" y="810" />
            </Array>
          </mxGeometry>
        </mxCell>
        <mxCell id="2nmOzk4MmiROLbCKrJJv-58" value="postRentFilm(film,&lt;div&gt;newSelectedRentWeeks,&lt;/div&gt;&lt;div&gt;newDisabledCheckedRentWeeks)&lt;/div&gt;" style="edgeLabel;html=1;align=center;verticalAlign=middle;resizable=0;points=[];" parent="2nmOzk4MmiROLbCKrJJv-57" vertex="1" connectable="0">
          <mxGeometry x="0.0556" y="-1" relative="1" as="geometry">
            <mxPoint x="-12" y="9" as="offset" />
          </mxGeometry>
        </mxCell>
        <mxCell id="2nmOzk4MmiROLbCKrJJv-59" value="film : Film" style="rounded=0;whiteSpace=wrap;html=1;" parent="1" vertex="1">
          <mxGeometry x="640" y="40" width="120" height="60" as="geometry" />
        </mxCell>
        <mxCell id="2nmOzk4MmiROLbCKrJJv-61" value="" style="endArrow=none;dashed=1;html=1;dashPattern=1 3;strokeWidth=2;rounded=0;entryX=0.5;entryY=1;entryDx=0;entryDy=0;" parent="1" edge="1">
          <mxGeometry width="50" height="50" relative="1" as="geometry">
            <mxPoint x="700" y="1480" as="sourcePoint" />
            <mxPoint x="699.66" y="100" as="targetPoint" />
          </mxGeometry>
        </mxCell>
        <mxCell id="2nmOzk4MmiROLbCKrJJv-62" value="" style="endArrow=classic;html=1;rounded=0;" parent="1" edge="1">
          <mxGeometry width="50" height="50" relative="1" as="geometry">
            <mxPoint x="285" y="820" as="sourcePoint" />
            <mxPoint x="290" y="860" as="targetPoint" />
            <Array as="points">
              <mxPoint x="365" y="820" />
              <mxPoint x="365" y="860" />
            </Array>
          </mxGeometry>
        </mxCell>
        <mxCell id="2nmOzk4MmiROLbCKrJJv-63" value="getDetailStartYearWeekEntry(film)&lt;div&gt;: currentWeek&lt;/div&gt;" style="edgeLabel;html=1;align=center;verticalAlign=middle;resizable=0;points=[];" parent="2nmOzk4MmiROLbCKrJJv-62" vertex="1" connectable="0">
          <mxGeometry x="0.04" y="-2" relative="1" as="geometry">
            <mxPoint x="17" y="-1" as="offset" />
          </mxGeometry>
        </mxCell>
        <mxCell id="2nmOzk4MmiROLbCKrJJv-64" value="" style="endArrow=classic;html=1;rounded=0;" parent="1" edge="1">
          <mxGeometry width="50" height="50" relative="1" as="geometry">
            <mxPoint x="285" y="870" as="sourcePoint" />
            <mxPoint x="290" y="910" as="targetPoint" />
            <Array as="points">
              <mxPoint x="365" y="870" />
              <mxPoint x="365" y="910" />
            </Array>
          </mxGeometry>
        </mxCell>
        <mxCell id="2nmOzk4MmiROLbCKrJJv-65" value="getDetailEndYearWeekEntry()&lt;div&gt;: lastWeek&lt;/div&gt;" style="edgeLabel;html=1;align=center;verticalAlign=middle;resizable=0;points=[];" parent="2nmOzk4MmiROLbCKrJJv-64" vertex="1" connectable="0">
          <mxGeometry x="0.04" y="-2" relative="1" as="geometry">
            <mxPoint x="17" y="-1" as="offset" />
          </mxGeometry>
        </mxCell>
        <mxCell id="2nmOzk4MmiROLbCKrJJv-66" value="loop" style="shape=umlFrame;whiteSpace=wrap;html=1;pointerEvents=0;" parent="1" vertex="1">
          <mxGeometry x="60" y="930" width="840" height="390" as="geometry" />
        </mxCell>
        <mxCell id="2nmOzk4MmiROLbCKrJJv-67" value="FilmRepository" style="rounded=0;whiteSpace=wrap;html=1;" parent="1" vertex="1">
          <mxGeometry x="800" y="40" width="120" height="60" as="geometry" />
        </mxCell>
        <mxCell id="2nmOzk4MmiROLbCKrJJv-68" value="" style="endArrow=none;dashed=1;html=1;dashPattern=1 3;strokeWidth=2;rounded=0;entryX=0.5;entryY=1;entryDx=0;entryDy=0;" parent="1" edge="1">
          <mxGeometry width="50" height="50" relative="1" as="geometry">
            <mxPoint x="860" y="1480" as="sourcePoint" />
            <mxPoint x="859.6" y="100" as="targetPoint" />
          </mxGeometry>
        </mxCell>
        <mxCell id="DIUy6-B34AIM-AKarfW8-1" value="[i: currentWeek to lastWeek]" style="text;html=1;align=center;verticalAlign=middle;resizable=0;points=[];autosize=1;strokeColor=none;fillColor=none;" vertex="1" parent="1">
          <mxGeometry x="65" y="970" width="170" height="30" as="geometry" />
        </mxCell>
        <mxCell id="DIUy6-B34AIM-AKarfW8-2" value="alt" style="shape=umlFrame;whiteSpace=wrap;html=1;pointerEvents=0;" vertex="1" parent="1">
          <mxGeometry x="60" y="1000" width="840" height="280" as="geometry" />
        </mxCell>
        <mxCell id="DIUy6-B34AIM-AKarfW8-3" value="[!newDisabledCheckedRentWeeks&lt;div&gt;.contains(currentWeek.getId())]&lt;/div&gt;" style="text;html=1;align=center;verticalAlign=middle;resizable=0;points=[];autosize=1;strokeColor=none;fillColor=none;" vertex="1" parent="1">
          <mxGeometry x="65" y="1035" width="210" height="40" as="geometry" />
        </mxCell>
        <mxCell id="DIUy6-B34AIM-AKarfW8-4" value="alt" style="shape=umlFrame;whiteSpace=wrap;html=1;pointerEvents=0;" vertex="1" parent="1">
          <mxGeometry x="60" y="1080" width="840" height="160" as="geometry" />
        </mxCell>
        <mxCell id="DIUy6-B34AIM-AKarfW8-5" value="[newSelectedRentWeeks&#xa;.contains(currentWeek.getId())]" style="text;whiteSpace=wrap;" vertex="1" parent="1">
          <mxGeometry x="80" y="1120" width="180" height="40" as="geometry" />
        </mxCell>
        <mxCell id="DIUy6-B34AIM-AKarfW8-6" value="" style="endArrow=none;dashed=1;html=1;dashPattern=1 3;strokeWidth=2;rounded=0;" edge="1" parent="1">
          <mxGeometry width="50" height="50" relative="1" as="geometry">
            <mxPoint x="60" y="1160" as="sourcePoint" />
            <mxPoint x="900" y="1160" as="targetPoint" />
          </mxGeometry>
        </mxCell>
        <mxCell id="DIUy6-B34AIM-AKarfW8-7" value="" style="endArrow=classic;html=1;rounded=0;" edge="1" parent="1">
          <mxGeometry width="50" height="50" relative="1" as="geometry">
            <mxPoint x="285" y="1110" as="sourcePoint" />
            <mxPoint x="700" y="1110" as="targetPoint" />
          </mxGeometry>
        </mxCell>
        <mxCell id="DIUy6-B34AIM-AKarfW8-8" value="addRentWeek(i)" style="edgeLabel;html=1;align=center;verticalAlign=middle;resizable=0;points=[];" vertex="1" connectable="0" parent="DIUy6-B34AIM-AKarfW8-7">
          <mxGeometry x="0.0444" y="1" relative="1" as="geometry">
            <mxPoint as="offset" />
          </mxGeometry>
        </mxCell>
        <mxCell id="DIUy6-B34AIM-AKarfW8-9" value="" style="endArrow=none;dashed=1;html=1;rounded=0;startArrow=open;startFill=0;" edge="1" parent="1">
          <mxGeometry width="50" height="50" relative="1" as="geometry">
            <mxPoint x="285" y="1130" as="sourcePoint" />
            <mxPoint x="700" y="1130" as="targetPoint" />
          </mxGeometry>
        </mxCell>
        <mxCell id="DIUy6-B34AIM-AKarfW8-10" value="" style="endArrow=classic;html=1;rounded=0;" edge="1" parent="1">
          <mxGeometry width="50" height="50" relative="1" as="geometry">
            <mxPoint x="285" y="1190" as="sourcePoint" />
            <mxPoint x="700" y="1190" as="targetPoint" />
          </mxGeometry>
        </mxCell>
        <mxCell id="DIUy6-B34AIM-AKarfW8-11" value="removeRentWeek(i)" style="edgeLabel;html=1;align=center;verticalAlign=middle;resizable=0;points=[];" vertex="1" connectable="0" parent="DIUy6-B34AIM-AKarfW8-10">
          <mxGeometry x="0.0444" y="1" relative="1" as="geometry">
            <mxPoint as="offset" />
          </mxGeometry>
        </mxCell>
        <mxCell id="DIUy6-B34AIM-AKarfW8-12" value="" style="endArrow=none;dashed=1;html=1;rounded=0;startArrow=open;startFill=0;" edge="1" parent="1">
          <mxGeometry width="50" height="50" relative="1" as="geometry">
            <mxPoint x="285" y="1210" as="sourcePoint" />
            <mxPoint x="700" y="1210" as="targetPoint" />
          </mxGeometry>
        </mxCell>
        <mxCell id="DIUy6-B34AIM-AKarfW8-13" value="[else]" style="text;html=1;align=center;verticalAlign=middle;resizable=0;points=[];autosize=1;strokeColor=none;fillColor=none;" vertex="1" parent="1">
          <mxGeometry x="75" y="1170" width="50" height="30" as="geometry" />
        </mxCell>
        <mxCell id="DIUy6-B34AIM-AKarfW8-15" value="" style="endArrow=classic;html=1;rounded=0;" edge="1" parent="1">
          <mxGeometry width="50" height="50" relative="1" as="geometry">
            <mxPoint x="285" y="1340" as="sourcePoint" />
            <mxPoint x="860" y="1340" as="targetPoint" />
          </mxGeometry>
        </mxCell>
        <mxCell id="DIUy6-B34AIM-AKarfW8-16" value="save(film)" style="edgeLabel;html=1;align=center;verticalAlign=middle;resizable=0;points=[];" vertex="1" connectable="0" parent="DIUy6-B34AIM-AKarfW8-15">
          <mxGeometry x="-0.0385" relative="1" as="geometry">
            <mxPoint as="offset" />
          </mxGeometry>
        </mxCell>
        <mxCell id="DIUy6-B34AIM-AKarfW8-17" value="" style="endArrow=none;dashed=1;html=1;rounded=0;startArrow=open;startFill=0;" edge="1" parent="1" source="TmpWhg5RtlY6bORmAOob-32">
          <mxGeometry width="50" height="50" relative="1" as="geometry">
            <mxPoint x="450" y="1360" as="sourcePoint" />
            <mxPoint x="865" y="1360" as="targetPoint" />
          </mxGeometry>
        </mxCell>
        <mxCell id="DIUy6-B34AIM-AKarfW8-19" value="" style="endArrow=classic;html=1;rounded=0;" edge="1" parent="1">
          <mxGeometry width="50" height="50" relative="1" as="geometry">
            <mxPoint x="285" y="1380" as="sourcePoint" />
            <mxPoint x="860" y="1380" as="targetPoint" />
          </mxGeometry>
        </mxCell>
        <mxCell id="DIUy6-B34AIM-AKarfW8-20" value="add FlashAttribute successMessage to redirectAttributes" style="edgeLabel;html=1;align=center;verticalAlign=middle;resizable=0;points=[];" vertex="1" connectable="0" parent="DIUy6-B34AIM-AKarfW8-19">
          <mxGeometry x="-0.0385" relative="1" as="geometry">
            <mxPoint as="offset" />
          </mxGeometry>
        </mxCell>
        <mxCell id="DIUy6-B34AIM-AKarfW8-21" value="" style="endArrow=none;dashed=1;html=1;rounded=0;startArrow=open;startFill=0;" edge="1" parent="1">
          <mxGeometry width="50" height="50" relative="1" as="geometry">
            <mxPoint x="285" y="1400" as="sourcePoint" />
            <mxPoint x="865" y="1400" as="targetPoint" />
          </mxGeometry>
        </mxCell>
        <mxCell id="DIUy6-B34AIM-AKarfW8-22" value="" style="endArrow=none;dashed=1;html=1;rounded=0;startArrow=open;startFill=0;" edge="1" parent="1">
          <mxGeometry width="50" height="50" relative="1" as="geometry">
            <mxPoint x="100" y="1420" as="sourcePoint" />
            <mxPoint x="275" y="1420" as="targetPoint" />
          </mxGeometry>
        </mxCell>
        <mxCell id="DIUy6-B34AIM-AKarfW8-23" value="Template: films-detail.html :&amp;nbsp;" style="edgeLabel;html=1;align=center;verticalAlign=middle;resizable=0;points=[];" vertex="1" connectable="0" parent="DIUy6-B34AIM-AKarfW8-22">
          <mxGeometry x="-0.3222" y="-1" relative="1" as="geometry">
            <mxPoint x="29" as="offset" />
          </mxGeometry>
        </mxCell>
      </root>
    </mxGraphModel>
  </diagram>
</mxfile>
